<svg xmlns="http://www.w3.org/2000/svg" viewBox="0 0 683.33 617.1"><defs><style>.cls-1{fill:#e6e7e8;}.cls-2{fill:#feca78;}.cls-3{fill:#3886c7;}.cls-4{fill:#f1f2f2;}.cls-5{fill:#a7a9ac;}.cls-6{fill:#afd281;}.cls-7{fill:#49a4a6;}.cls-8{fill:#f47b50;}.cls-9{fill:#ffcc39;}.cls-10{fill:#d1d3d4;}.cls-11{fill:#fff;}.cls-12{fill:#f494ac;}.cls-13{fill:#e87c9b;}.cls-14{fill:#f38e8b;}.cls-15{fill:#80367f;}.cls-16{fill:#924b92;}.cls-17{fill:#9b529a;}.cls-18{fill:#eaaaca;}.cls-19{fill:#e599c2;}.cls-20{fill:#f69d98;}.cls-21{fill:#f48e8c;}.cls-22{fill:#231f20;}.cls-23{fill:#ea7575;}.cls-24{fill:#57170a;}.cls-25{fill:#36120f;}.cls-26{fill:#ef486a;}.cls-27{fill:#3e9393;}.cls-28{fill:#419999;}</style></defs><g id="Layer_2" data-name="Layer 2"><g id="Layer_1-2" data-name="Layer 1"><path class="cls-1" d="M686.64,559.92H63.69s-19.07.41-24,3.25c0,0-11.52,8.91-5,21.85a23.11,23.11,0,0,0,18.47,9H191.55a54.06,54.06,0,0,1,12.08,2.22c11.28,3.56,15.48,15.61,15,26.47-.53,12.64-13.46,24.7-10.29,36.89a18.62,18.62,0,0,0,7,9.78c18.34,14.12,45.9,15.24,68,18,40.05,5.06,80.65,6,121,6h.25c40.33,0,80.92-.93,121-6,22.07-2.79,49.64-3.91,68-18a18.67,18.67,0,0,0,7-9.78c3.16-12.19-9.76-24.25-10.3-36.89-.46-10.86,3.74-22.91,15-26.47a54.14,54.14,0,0,1,12.09-2.22h72.12s21.92-1.58,21.92-15.31c0,0,2.55-18.82-24.71-18.82Z" transform="translate(-28.08 -76.33)"/><path class="cls-2" d="M142.12,312.6c0-130.49,105.78-236.27,236.27-236.27S614.66,182.11,614.66,312.6,508.88,548.86,378.39,548.86,142.12,443.08,142.12,312.6Z" transform="translate(-28.08 -76.33)"/><path class="cls-3" d="M208.05,578.74H55.25l-.27,0a40.08,40.08,0,0,1-13.28-5.3c-8.91-5.62-13.62-14-13.62-24.29v-7.34c0-10.27,4.71-18.67,13.62-24.29A40.24,40.24,0,0,1,55,512.16l.27,0h152.8v6.54H55.85A34.7,34.7,0,0,0,45,523.11c-6.9,4.42-10.4,10.69-10.4,18.65v7.34c0,8,3.56,14.33,10.57,18.76a34.21,34.21,0,0,0,10.65,4.34H208.05v6.54Z" transform="translate(-28.08 -76.33)"/><path class="cls-4" d="M55.85,518.65A34.7,34.7,0,0,0,45,523.11c-6.9,4.42-10.4,10.69-10.4,18.65v7.34c0,8,3.56,14.33,10.57,18.76a34.21,34.21,0,0,0,10.65,4.34H200.51V518.65Z" transform="translate(-28.08 -76.33)"/><path class="cls-5" d="M39.64,527.69H200.51v-1.64H41.21c-.56.53-1.08,1.08-1.57,1.64Z" transform="translate(-28.08 -76.33)"/><path class="cls-5" d="M35,537.29H200.51v-1.63H35.4c-.15.53-.27,1.08-.38,1.63Z" transform="translate(-28.08 -76.33)"/><polygon class="cls-5" points="6.54 469.92 172.43 469.92 172.43 468.28 6.54 468.28 6.54 469.92 6.54 469.92"/><path class="cls-5" d="M35.4,555.2H200.51v-1.64H35c.11.56.23,1.1.38,1.64Z" transform="translate(-28.08 -76.33)"/><path class="cls-5" d="M41.21,564.8h159.3v-1.63H39.64a21.86,21.86,0,0,0,1.57,1.63Z" transform="translate(-28.08 -76.33)"/><path class="cls-6" d="M697,578.74H544.18l-.28,0a40.08,40.08,0,0,1-13.28-5.3c-8.91-5.62-13.61-14-13.61-24.29v-7.34c0-10.27,4.7-18.67,13.61-24.29a40.24,40.24,0,0,1,13.28-5.31l.28,0H697v6.54H544.77a34.7,34.7,0,0,0-10.83,4.46c-6.89,4.42-10.39,10.69-10.39,18.65v7.34c0,8,3.55,14.33,10.56,18.76a34.13,34.13,0,0,0,10.66,4.34H697v6.54Z" transform="translate(-28.08 -76.33)"/><path class="cls-4" d="M544.77,518.65a34.7,34.7,0,0,0-10.83,4.46c-6.89,4.42-10.39,10.69-10.39,18.65v7.34c0,8,3.55,14.33,10.56,18.76a34.13,34.13,0,0,0,10.66,4.34H689.43V518.65Z" transform="translate(-28.08 -76.33)"/><path class="cls-5" d="M528.56,527.69H689.43v-1.64H530.14c-.56.53-1.09,1.08-1.58,1.64Z" transform="translate(-28.08 -76.33)"/><path class="cls-5" d="M524,537.29H689.43v-1.63H524.32c-.14.53-.27,1.08-.37,1.63Z" transform="translate(-28.08 -76.33)"/><polygon class="cls-5" points="495.46 469.92 661.35 469.92 661.35 468.28 495.46 468.28 495.46 469.92 495.46 469.92"/><path class="cls-5" d="M524.32,555.2H689.43v-1.64H524c.1.56.23,1.1.37,1.64Z" transform="translate(-28.08 -76.33)"/><path class="cls-5" d="M530.13,564.8h159.3v-1.63H528.56a21.86,21.86,0,0,0,1.57,1.63Z" transform="translate(-28.08 -76.33)"/><path class="cls-7" d="M263.43,512.11H110.64l-.28,0a40.49,40.49,0,0,1-13.28-5.31c-8.91-5.62-13.62-14-13.62-24.29v-7.34c0-10.27,4.71-18.67,13.62-24.29a40.49,40.49,0,0,1,13.28-5.31l.28,0H263.43V452H111.23a34.32,34.32,0,0,0-10.83,4.45C93.5,460.9,90,467.17,90,475.13v7.34c0,8,3.55,14.33,10.56,18.76a34.21,34.21,0,0,0,10.65,4.34H263.43v6.54Z" transform="translate(-28.08 -76.33)"/><path class="cls-4" d="M111.23,452a34.32,34.32,0,0,0-10.83,4.45C93.5,460.9,90,467.17,90,475.13v7.34c0,8,3.55,14.33,10.56,18.76a34.21,34.21,0,0,0,10.65,4.34H255.9V452Z" transform="translate(-28.08 -76.33)"/><path class="cls-5" d="M95,461.06H255.9v-1.63H96.6A22,22,0,0,0,95,461.06Z" transform="translate(-28.08 -76.33)"/><path class="cls-5" d="M90.41,470.67H255.9V469H90.78c-.15.54-.27,1.08-.37,1.64Z" transform="translate(-28.08 -76.33)"/><polygon class="cls-5" points="61.92 403.29 227.81 403.29 227.81 401.65 61.92 401.65 61.92 403.29 61.92 403.29"/><path class="cls-5" d="M90.78,488.57H255.9v-1.64H90.41c.1.56.22,1.1.37,1.64Z" transform="translate(-28.08 -76.33)"/><path class="cls-5" d="M96.59,498.17H255.9v-1.63H95a21.86,21.86,0,0,0,1.57,1.63Z" transform="translate(-28.08 -76.33)"/><path class="cls-7" d="M443.39,512.11H290.6l-.27,0A40.5,40.5,0,0,1,277,506.76c-8.9-5.62-13.61-14-13.61-24.29v-7.34c0-10.27,4.71-18.67,13.61-24.29a40.5,40.5,0,0,1,13.29-5.31l.27,0H443.39V452H291.19a34.3,34.3,0,0,0-10.82,4.45c-6.9,4.42-10.4,10.69-10.4,18.65v7.34c0,8,3.55,14.33,10.56,18.76a34.23,34.23,0,0,0,10.66,4.34h152.2v6.54Z" transform="translate(-28.08 -76.33)"/><path class="cls-4" d="M291.19,452a34.3,34.3,0,0,0-10.82,4.45c-6.9,4.42-10.4,10.69-10.4,18.65v7.34c0,8,3.55,14.33,10.56,18.76a34.23,34.23,0,0,0,10.66,4.34H435.86V452Z" transform="translate(-28.08 -76.33)"/><path class="cls-5" d="M275,461.06H435.86v-1.63H276.56a22,22,0,0,0-1.58,1.63Z" transform="translate(-28.08 -76.33)"/><path class="cls-5" d="M270.37,470.67H435.86V469H270.74c-.14.54-.27,1.08-.37,1.64Z" transform="translate(-28.08 -76.33)"/><polygon class="cls-5" points="241.89 403.29 407.78 403.29 407.78 401.65 241.89 401.65 241.89 403.29 241.89 403.29"/><path class="cls-5" d="M270.74,488.57H435.86v-1.64H270.37c.1.56.23,1.1.37,1.64Z" transform="translate(-28.08 -76.33)"/><path class="cls-5" d="M276.56,498.17h159.3v-1.63H275a22,22,0,0,0,1.58,1.63Z" transform="translate(-28.08 -76.33)"/><path class="cls-8" d="M529.88,377.21,663.11,452l.22.17a40.43,40.43,0,0,1,9,11.13c5,9.26,5,18.89,0,27.85l-3.6,6.4c-5,8.95-13.24,14-23.76,14.51a40.25,40.25,0,0,1-14.18-1.87l-.26-.09L497.26,435.31l3.2-5.71,132.72,74.5a34.36,34.36,0,0,0,11.62,1.42c8.18-.47,14.31-4.23,18.2-11.17l3.59-6.4c3.93-7,3.92-14.24,0-21.53a34.18,34.18,0,0,0-7.16-9l-132.73-74.5,3.21-5.7Z" transform="translate(-28.08 -76.33)"/><path class="cls-4" d="M633.18,504.1a34.36,34.36,0,0,0,11.62,1.42c8.18-.47,14.31-4.23,18.2-11.17l3.59-6.4c3.93-7,3.92-14.24,0-21.53a34.18,34.18,0,0,0-7.16-9L533.25,386.6,507,433.29,633.18,504.1Z" transform="translate(-28.08 -76.33)"/><path class="cls-5" d="M651.74,504.16,511.46,425.42l-.8,1.42,138.91,78a21.79,21.79,0,0,0,2.17-.65Z" transform="translate(-28.08 -76.33)"/><path class="cls-5" d="M660.47,498,516.16,417l-.8,1.42,144,80.83c.39-.4.76-.81,1.13-1.25Z" transform="translate(-28.08 -76.33)"/><polygon class="cls-5" points="637.11 414.11 492.46 332.91 491.65 334.33 636.31 415.53 637.11 414.11 637.11 414.11"/><path class="cls-5" d="M668.9,482.25l-144-80.82-.8,1.42,144.31,81c.18-.54.34-1.07.47-1.61Z" transform="translate(-28.08 -76.33)"/><path class="cls-5" d="M668.53,471l-138.91-78-.8,1.43,140.29,78.74a22.14,22.14,0,0,0-.58-2.19Z" transform="translate(-28.08 -76.33)"/><path class="cls-9" d="M388,578.74H235.23l-.27,0a40,40,0,0,1-13.29-5.3c-8.9-5.62-13.61-14-13.61-24.29v-7.34c0-10.27,4.71-18.67,13.61-24.29A40.16,40.16,0,0,1,235,512.16l.27,0H388v6.54H235.82A34.68,34.68,0,0,0,225,523.11c-6.9,4.42-10.4,10.69-10.4,18.65v7.34c0,8,3.55,14.33,10.56,18.76a34.23,34.23,0,0,0,10.66,4.34H388v6.54Z" transform="translate(-28.08 -76.33)"/><path class="cls-4" d="M235.82,518.65A34.68,34.68,0,0,0,225,523.11c-6.9,4.42-10.4,10.69-10.4,18.65v7.34c0,8,3.55,14.33,10.56,18.76a34.23,34.23,0,0,0,10.66,4.34H380.49V518.65Z" transform="translate(-28.08 -76.33)"/><path class="cls-5" d="M219.62,527.69H380.49v-1.64H221.19c-.56.53-1.08,1.08-1.57,1.64Z" transform="translate(-28.08 -76.33)"/><path class="cls-5" d="M215,537.29H380.49v-1.63H215.37c-.14.53-.27,1.08-.37,1.63Z" transform="translate(-28.08 -76.33)"/><polygon class="cls-5" points="186.52 469.92 352.41 469.92 352.41 468.28 186.52 468.28 186.52 469.92 186.52 469.92"/><path class="cls-5" d="M215.37,555.2H380.49v-1.64H215c.1.56.23,1.1.37,1.64Z" transform="translate(-28.08 -76.33)"/><path class="cls-5" d="M221.19,564.8h159.3v-1.63H219.61a22,22,0,0,0,1.58,1.63Z" transform="translate(-28.08 -76.33)"/><path class="cls-3" d="M189.59,445.48H342.38l.27,0a40.42,40.42,0,0,0,13.29-5.31c8.91-5.62,13.61-14,13.61-24.29V408.5c0-10.27-4.7-18.67-13.61-24.29a40.42,40.42,0,0,0-13.29-5.31l-.27,0H189.59v6.55h152.2a34.3,34.3,0,0,1,10.82,4.45c6.9,4.42,10.4,10.69,10.4,18.65v7.34c0,8-3.55,14.33-10.56,18.76a33.87,33.87,0,0,1-10.66,4.34H189.59v6.54Z" transform="translate(-28.08 -76.33)"/><path class="cls-4" d="M341.79,385.4a34.3,34.3,0,0,1,10.82,4.45c6.9,4.42,10.4,10.69,10.4,18.65v7.34c0,8-3.55,14.33-10.56,18.76a33.87,33.87,0,0,1-10.66,4.34H197.12V385.4Z" transform="translate(-28.08 -76.33)"/><path class="cls-5" d="M358,394.43H197.12V392.8h159.3a20,20,0,0,1,1.57,1.63Z" transform="translate(-28.08 -76.33)"/><path class="cls-5" d="M362.61,404H197.12V402.4H362.24c.14.54.27,1.08.37,1.64Z" transform="translate(-28.08 -76.33)"/><polygon class="cls-5" points="334.93 336.66 169.04 336.66 169.04 335.03 334.93 335.03 334.93 336.66 334.93 336.66"/><path class="cls-5" d="M362.24,421.94H197.12V420.3H362.61c-.1.56-.23,1.1-.37,1.64Z" transform="translate(-28.08 -76.33)"/><path class="cls-5" d="M356.42,431.54H197.12v-1.63H358a22,22,0,0,1-1.58,1.63Z" transform="translate(-28.08 -76.33)"/><path class="cls-10" d="M80.45,292.65l25.22-19.94,88.39,42.66L80.45,292.65Zm49.87-54.33,66.08,71.79-77-50.85,10.88-20.94Zm-11.44,25,65.09,43L118.88,275V263.36Zm90.9,57.54s0,0,0,0v0l0-.08,0-.07a.19.19,0,0,1,0-.07,851007099660.35,851007099660.35,0,0,1,0-.18.17.17,0,0,0,0-.07v0a.22.22,0,0,1,0-.08v-.1s0,0,0-.06h0s0,0,0-.06v-.09h0a.17.17,0,0,0,0-.07v0a.43.43,0,0,1,0-.05s0,0,0-.07v0s0,0,0-.05a.24.24,0,0,0,0-.08v0a.08.08,0,0,0,0-.05s0-.05,0-.08l0,0,0,0,0-.07,0,0,0-.06,0-.05,0,0a.43.43,0,0,0,0-.07l0,0,0,0-.05-.06,0,0h0l-78.2-85a1.85,1.85,0,0,0-3,.4L115.36,259l0,.09s0,0,0,.05a1.72,1.72,0,0,0-.07.21v0a1.29,1.29,0,0,0,0,.19v0a2,2,0,0,0,0,.23h0v13.26l-8.91-4.3a1.88,1.88,0,0,0-2,.22L75,292.23a1.86,1.86,0,0,0,.79,3.28l132,26.4h.62l.11,0h0l.06,0h0l.08,0h0l.14,0,.05,0,.11-.05,0,0h0a.71.71,0,0,0,.14-.1h0l0,0,.11-.09,0,0,0,0,0,0,.09-.1h0l0,0,0,0,0,0,0,0,0-.05,0-.09,0,0h0v0a.56.56,0,0,1,.05-.08Z" transform="translate(-28.08 -76.33)"/><polygon class="cls-11" points="90.8 187.03 155.88 230.04 90.8 198.63 90.8 187.03 90.8 187.03"/><polygon class="cls-11" points="102.24 162 168.31 233.79 91.36 182.94 102.24 162 102.24 162"/><polygon class="cls-11" points="52.37 216.32 77.59 196.39 165.98 239.05 52.37 216.32 52.37 216.32"/><path class="cls-10" d="M348.16,218.23l.81-34.81,96.71-44.2-97.52,79Zm-10.81-79.15,105.56-5.45-95.63,29-9.93-23.55Zm13,26.85,80.88-24.52L360,174l-9.67-8Zm110.85-36,0-.05v0a.59.59,0,0,1,0-.08l0-.06a.35.35,0,0,0-.05-.08l-.05-.08-.06-.07-.06-.07v0l-.06-.05s0,0-.05,0l0,0s0,0,0,0h0l-.06,0,0,0,0,0h0l-.07-.05,0,0-.05,0-.07,0,0,0-.05,0-.08,0h0l-.06,0-.08,0h0l-.07,0h-.63l-124.93,6.44a2,2,0,0,0-1.6.95,2,2,0,0,0-.15,1.85l11.76,27.88a.31.31,0,0,0,.05.1s0,0,0,.05l.12.21,0,0,.13.17,0,0,.18.17h0l11.06,9.17-9.76,4.46a2,2,0,0,0-1.17,1.79l-1,40.44a2,2,0,0,0,3.28,1.62l113.29-91.78.05-.05.05,0s0,0,0,0l.13-.14h0a1.58,1.58,0,0,0,.12-.15l0,0h0l0,0,.07-.11,0,0,0-.07a0,0,0,0,1,0,0l0-.08v0l.06-.15s0,0,0-.06l0-.13s0,0,0,0v0a1.37,1.37,0,0,0,0-.19v-.07a.33.33,0,0,0,0-.14v-.11a.78.78,0,0,1,0-.14h0a0,0,0,0,1,0,0s0,0,0-.06v0a.43.43,0,0,0,0-.05v-.06l0-.11s0,0,0,0h0v0a.3.3,0,0,1,0-.1Z" transform="translate(-28.08 -76.33)"/><polygon class="cls-11" points="322.22 89.6 403.1 65.08 331.89 97.62 322.22 89.6 322.22 89.6"/><polygon class="cls-11" points="309.26 62.75 414.83 57.31 319.2 86.3 309.26 62.75 309.26 62.75"/><polygon class="cls-11" points="320.07 141.91 320.89 107.09 417.6 62.89 320.07 141.91 320.07 141.91"/><path class="cls-10" d="M562.18,344.74l8.45-27.38L657.09,304l-94.91,40.71Zm9.18-65.08L656.15,299,574,300.53l-2.59-20.87Zm4.24,24.16,69.53-1.3-63.67,9.81-5.86-8.51Zm95.82-3.67a.09.09,0,0,0,0,0V300a.64.64,0,0,0,0-.07l0-.06,0-.08,0-.08,0-.06v0l0,0,0-.06s0,0,0,0l0,0h0l0-.05,0,0,0,0h0l0-.05,0,0,0,0,0-.05,0,0,0,0-.05,0,0,0,0,0-.06,0,0,0,0,0-.06,0h0l0,0-.05,0h0l-.07,0h-.08l-.07,0h0L569.78,275.89a1.66,1.66,0,0,0-2,1.82l3.06,24.71s0,.06,0,.09v0a1.05,1.05,0,0,0,0,.19s0,0,0,0l.07.16,0,0a1.62,1.62,0,0,0,.1.18h0l6.71,9.75-8.73,1.34a1.67,1.67,0,0,0-1.33,1.15L558,347.19a1.66,1.66,0,0,0,2.24,2l110.25-47.29,0,0,0,0,0,0,.13-.08h0l.13-.1,0,0h0l0,0,.08-.08,0,0,0,0v0s0,0,.05-.06h0l.07-.11,0,0a.41.41,0,0,1,0-.09v-.05l.06-.15v-.05a.49.49,0,0,0,0-.11s0,0,0,0v-.05s0-.08,0-.11h0v0a.09.09,0,0,0,0-.05v-.24h0s0,0,0,0a.25.25,0,0,0,0-.08Z" transform="translate(-28.08 -76.33)"/><polygon class="cls-11" points="547.52 227.49 617.04 226.19 553.38 236.01 547.52 227.49 547.52 227.49"/><polygon class="cls-11" points="543.27 203.33 628.07 222.66 545.86 224.2 543.27 203.33 543.27 203.33"/><polygon class="cls-11" points="534.1 268.42 542.54 241.03 629.01 227.71 534.1 268.42 534.1 268.42"/><path class="cls-12" d="M490.45,483.86c-4-22.7-17.44-36.8-32.38-45.56l1.08.64c-57.37,30.84-104.8,0-104.8,0l1.08-.64c-14.94,8.76-28.36,22.86-32.38,45.56l-1.48,13.49s.14,1.28,2,1.68c0,0,9.06,1.3,17.23,1.53-2.58,41.51-1.67,91.32-1.67,91.32H474.4s.91-49.81-1.67-91.32C480.9,500.33,490,499,490,499c1.82-.4,2-1.68,2-1.68l-1.48-13.49Z" transform="translate(-28.08 -76.33)"/><path class="cls-13" d="M406.75,572.2c-53.15,0-66-71.64-66-71.64-2.58,41.51-1.67,91.32-1.67,91.32H474.4s.91-49.81-1.67-91.32c0,0-12.84,71.64-66,71.64Z" transform="translate(-28.08 -76.33)"/><path class="cls-14" d="M459.15,438.94a95.29,95.29,0,0,0-18.47-8.53c-35.81-12.1-67.86,0-67.86,0a95.29,95.29,0,0,0-18.47,8.53s47.43,30.84,104.8,0Z" transform="translate(-28.08 -76.33)"/><path class="cls-15" d="M540.28,578.53c-3.34-4.24-7.61-8.1-13-10.06-5.85-2.11-12.47-1.79-18.68-.74-10.6,1.8-20.54,5.6-30.59,9.17h0a40.25,40.25,0,0,1-4.82,1.17,25.27,25.27,0,0,1-4,1.2A204.27,204.27,0,0,1,424,585.59H387.12A204.1,204.1,0,0,1,342,579.27a23.39,23.39,0,0,1-4.18-1.27c-11.12-3.85-22-8.28-33.73-10.27-6.21-1.05-12.83-1.37-18.69.74-5.41,2-9.67,5.82-13,10.06-4.17,5.28-7.21,11.79-5.65,18.07,2.15,8.68,11.92,13.83,20.28,18.77,14.82,8.78,26.52,20.33,43.4,26.3,14,5,29.09,7.49,44,8.91,10.58,1,21.23,1.42,31.87,1.42,25.64,0,52.6-1.92,76.59-10.57,16.33-5.88,28.26-17.5,42.73-26.06,8.36-4.94,18.12-10.09,20.28-18.77,1.56-6.28-1.48-12.79-5.65-18.07Z" transform="translate(-28.08 -76.33)"/><path class="cls-16" d="M405.07,589.37a11.7,11.7,0,0,1,.28,2.51,11.33,11.33,0,0,1-.27,2.53,11.19,11.19,0,0,1-.81,2.43c-.09.2-.19.38-.28.58l-.28.54a4.28,4.28,0,0,0-.36,1.08.93.93,0,0,0,.15.81.8.8,0,0,0,.34.19,2.33,2.33,0,0,0,.52.09c.2,0,.42,0,.67.1a1.54,1.54,0,0,1,.78.4,1.44,1.44,0,0,1,.44.84,2.59,2.59,0,0,1,0,.8c-.09.48-.24.87-.28,1.2a5.3,5.3,0,0,0,0,1.13l.22,2.48c.14,1.67.27,3.34.38,5s.14,3.35.09,5c0,.84-.06,1.67-.11,2.51s-.11,1.67-.2,2.51a49.32,49.32,0,0,1-.71,5,.09.09,0,0,1-.1.07.08.08,0,0,1-.07-.08c-.14-1.67-.22-3.34-.29-5l-.1-2.49-.08-2.49c-.06-1.66-.08-3.32-.08-5s0-3.32-.07-5l-.09-2.52a6.37,6.37,0,0,1,.1-1.36c.1-.49.27-.88.35-1.22a1.55,1.55,0,0,0,0-.44.42.42,0,0,0-.11-.26,1.55,1.55,0,0,0-.87-.28,3.47,3.47,0,0,1-.7-.16,1.73,1.73,0,0,1-.7-.48,1.49,1.49,0,0,1-.34-.8,2.37,2.37,0,0,1,0-.76,4.89,4.89,0,0,1,.51-1.26c.1-.19.22-.38.33-.56s.21-.34.3-.52a10.58,10.58,0,0,0,.91-2.26,11.47,11.47,0,0,0,.32-4.88.09.09,0,1,1,.17,0Z" transform="translate(-28.08 -76.33)"/><path class="cls-17" d="M310.49,573.44c-12.93-3.11-28.34-6.34-41.62-3.61-15,3.08-25.79,16.82-20.38,31.91,10.31,28.76,44.69,35.93,71.49,39.34A511.1,511.1,0,0,0,398.19,645c4.48-.12,9-.3,13.44-.31a72.35,72.35,0,0,0,5-13.58A51.89,51.89,0,0,0,418.78,620c-34.57-19.2-69.95-37.37-108.29-46.55Z" transform="translate(-28.08 -76.33)"/><path class="cls-16" d="M283,622.12a36.37,36.37,0,0,1-10.38-12.69A25.54,25.54,0,0,1,270,601a23.72,23.72,0,0,1,1.23-10.05,28,28,0,0,1,4.27-8L386.39,602.7C362,590.41,337,579.78,310.49,573.44c-4.19-1-8.65-2-13.21-2.86h0l-2.62-.45-.18,0-1.62-.25h-.07l-.75-.11-.35,0-1.24-.16-.39,0-.65-.08-.5-.06-.61-.06-1-.1-.56,0-.62,0-.52-.05-1-.07-.46,0-.73,0-.45,0-1.06,0h-.38l-.81,0h-1.79l-.89,0h-.35l-1.11,0h-.22l-.95.06-.32,0c-.38,0-.75.06-1.13.09l-.15,0-1,.11-.3,0-1.12.16h-.08l-1.05.17-.29,0-1.11.21-1.08.25-.18,0c-.34.08-.68.17-1,.27l-.19.06-1,.31-.09,0-1,.35-.1,0c-.34.13-.67.26-1,.4l-.16.06-1,.43-.1,0c-.66.32-1.32.65-1.95,1l-.1.06c-.31.18-.62.36-.92.55l-.08,0c-.63.39-1.25.81-1.84,1.26h0c-.3.22-.59.45-.88.68l0,0A26.46,26.46,0,0,0,253.7,578l0,0q-.39.41-.75.81h0a22.29,22.29,0,0,0-4.44,22.87c10.31,28.76,44.69,35.93,71.49,39.34,3.93.5,7.86.94,11.8,1.35A230.42,230.42,0,0,1,295,629a62.84,62.84,0,0,1-12-6.85Z" transform="translate(-28.08 -76.33)"/><path class="cls-18" d="M509.35,631.77a23.74,23.74,0,0,0-5.7-2c-3.44-1-6.69-2.65-10.21-3.31-7.24-1.34-14.61,1.63-22,1.38a25.22,25.22,0,0,1-8.36-1.74c-3.73-1.46-7.44-3.88-11.4-3.24-2.87.46-5.22,2.46-7.87,3.65a14.79,14.79,0,0,1-7.74,1.17c-2-.22-4.76-2.17-5.51.41a19.3,19.3,0,0,0-.46,2h0c-.14.76-.25,1.54-.34,2.31-.57,3.55-1.76,10.1-3.07,12,0,0-.88,1.56-.32,2.17a9.82,9.82,0,0,0,2.94.71h0l8.48,2.26a53.42,53.42,0,0,0,6.47,1.44c2.75.37,5.56.31,8.28.89,9.26,1.95,15.79,10.72,24.92,13.22,3,.83,6.22.93,9.19,1.94,2,.68,3.95,1.79,6.08,1.8a9.24,9.24,0,0,0,4.17-1.19,30.64,30.64,0,0,0,8.07-6.41c2.2-2.32,4.29-4.93,5-8.05a36.48,36.48,0,0,1,.72-3.89,23.41,23.41,0,0,1,1.73-3.38c2.47-4.75,1.54-11.5-3.06-14.23Z" transform="translate(-28.08 -76.33)"/><path class="cls-19" d="M509.35,631.77a23.74,23.74,0,0,0-5.7-2l-.71-.22a8.88,8.88,0,0,1,1.37,7.74c-.57,1.69-1.76,3.14-2.18,4.88s0,3.95-.83,5.68c-1,2.13-3.63,3-5.24,4.7-.65.71-1.14,1.57-1.76,2.32a10.18,10.18,0,0,1-7.64,3.31,22,22,0,0,1-8.34-1.84A51.81,51.81,0,0,1,468,650.89c-2.69-1.83-5.22-3.93-8.19-5.25-4-1.76-8.4-2-12.73-2.29a15.92,15.92,0,0,1-4.7-.79,10.1,10.1,0,0,1-5.71-6.61c-.86-2.69-.58-5.52-.89-8.29-1.93-.37-4.47-2-5.18.46a19.3,19.3,0,0,0-.46,2h0c-.14.76-.25,1.54-.34,2.31-.57,3.55-1.76,10.1-3.07,12,0,0-.88,1.56-.32,2.17a9.82,9.82,0,0,0,2.94.71l8.48,2.26a53.42,53.42,0,0,0,6.47,1.44c2.75.37,5.56.31,8.28.89,9.26,1.95,15.79,10.72,24.92,13.22,3,.83,6.22.93,9.19,1.94,2,.68,3.95,1.79,6.08,1.8a9.24,9.24,0,0,0,4.17-1.19,30.64,30.64,0,0,0,8.07-6.41c2.2-2.32,4.29-4.93,5-8.05a36.48,36.48,0,0,1,.72-3.89,23.41,23.41,0,0,1,1.73-3.38c2.47-4.75,1.54-11.5-3.06-14.23Z" transform="translate(-28.08 -76.33)"/><path class="cls-20" d="M426.72,644.49c1.31-1.92,2.5-8.47,3.07-12,.09-.77.2-1.55.34-2.31h0a19.3,19.3,0,0,1,.46-2l.09-.26a49.16,49.16,0,0,1-7.94-2.94,26,26,0,0,0-4.27-2,68.37,68.37,0,0,1-1.89,8.19,78.25,78.25,0,0,1-3.91,11.34,89.67,89.67,0,0,1,13.87,2.42c.09-.2.17-.34.17-.34Z" transform="translate(-28.08 -76.33)"/><path class="cls-21" d="M420.34,632.34a74.44,74.44,0,0,0,1.81-7.72,17.42,17.42,0,0,0-3.67-1.74,68.37,68.37,0,0,1-1.89,8.19,78.25,78.25,0,0,1-3.91,11.34c1.38.11,2.74.27,4.1.47a83.7,83.7,0,0,0,3.56-10.54Z" transform="translate(-28.08 -76.33)"/><path class="cls-17" d="M501.29,573.44c12.94-3.11,28.34-6.34,41.63-3.61,15,3.08,25.78,16.82,20.37,31.91C553,630.5,518.61,637.67,491.8,641.08A511.1,511.1,0,0,1,413.59,645c-4.47-.12-9-.3-13.44-.31a73.05,73.05,0,0,1-5-13.58A52.49,52.49,0,0,1,393,620c34.56-19.2,69.94-37.37,108.28-46.55Z" transform="translate(-28.08 -76.33)"/><path class="cls-16" d="M528.82,622.12a36.45,36.45,0,0,0,10.37-12.69,25.56,25.56,0,0,0,2.62-8.45,24,24,0,0,0-1.23-10.05,28,28,0,0,0-4.28-8L425.39,602.7c24.36-12.29,49.42-22.92,75.9-29.26,4.2-1,8.66-2,13.22-2.86h0l2.61-.45.18,0,1.63-.25H519l.75-.11.35,0,1.24-.16.39,0,.65-.08.5-.06.62-.06,1-.1.55,0,.62,0,.53-.05,1-.07.47,0,.73,0,.44,0,1.07,0h.37l.82,0h1.78l.89,0h.35l1.11,0h.23l1,.06.32,0,1.12.09.15,0,1,.11.3,0,1.13.16h.08l1,.17.28,0,1.12.21,1.08.25.17,0,1,.27.19.06,1,.31.08,0,1,.35.11,0,1,.4.15.06,1,.43.1,0c.67.32,1.32.65,2,1l.09.06.93.55.07,0c.64.39,1.25.81,1.85,1.26h0l.87.68,0,0a26.59,26.59,0,0,1,2.47,2.26l0,0,.75.81h0a22.31,22.31,0,0,1,4.43,22.87C553,630.5,518.61,637.67,491.8,641.08c-3.93.5-7.86.94-11.8,1.35A230.89,230.89,0,0,0,516.83,629a63.45,63.45,0,0,0,12-6.85Z" transform="translate(-28.08 -76.33)"/><path class="cls-18" d="M302.44,631.77a23.81,23.81,0,0,1,5.69-2c3.44-1,6.69-2.65,10.22-3.31,7.24-1.34,14.6,1.63,22,1.38a25.27,25.27,0,0,0,8.36-1.74c3.72-1.46,7.43-3.88,11.39-3.24,2.87.46,5.22,2.46,7.87,3.65a14.79,14.79,0,0,0,7.74,1.17c2-.22,4.76-2.17,5.51.41.19.66.34,1.34.47,2h0c.14.76.25,1.54.35,2.31.56,3.55,1.75,10.1,3.07,12,0,0,.88,1.56.31,2.17a9.8,9.8,0,0,1-2.93.71h0L374,649.63a53.58,53.58,0,0,1-6.48,1.44c-2.75.37-5.56.31-8.27.89-9.27,1.95-15.8,10.72-24.93,13.22-3,.83-6.22.93-9.19,1.94-2,.68-4,1.79-6.07,1.8a9.28,9.28,0,0,1-4.18-1.19,30.76,30.76,0,0,1-8.06-6.41c-2.2-2.32-4.3-4.93-5-8.05a36.48,36.48,0,0,0-.72-3.89,24.41,24.41,0,0,0-1.72-3.38c-2.48-4.75-1.54-11.5,3.06-14.23Z" transform="translate(-28.08 -76.33)"/><path class="cls-19" d="M302.44,631.77a23.81,23.81,0,0,1,5.69-2l.71-.22a8.88,8.88,0,0,0-1.37,7.74c.57,1.69,1.76,3.14,2.18,4.88s0,3.95.83,5.68c1,2.13,3.63,3,5.24,4.7.66.71,1.14,1.57,1.76,2.32a10.2,10.2,0,0,0,7.65,3.31,21.92,21.92,0,0,0,8.33-1.84,51.89,51.89,0,0,0,10.33-5.48c2.68-1.83,5.21-3.93,8.18-5.25,4-1.76,8.41-2,12.73-2.29a15.86,15.86,0,0,0,4.7-.79,10.08,10.08,0,0,0,5.71-6.61c.86-2.69.59-5.52.89-8.29,1.93-.37,4.48-2,5.18.46.19.66.34,1.34.47,2h0c.14.76.25,1.54.35,2.31.56,3.55,1.75,10.1,3.07,12,0,0,.88,1.56.31,2.17a9.8,9.8,0,0,1-2.93.71L374,649.63a53.58,53.58,0,0,1-6.48,1.44c-2.75.37-5.56.31-8.27.89-9.27,1.95-15.8,10.72-24.93,13.22-3,.83-6.22.93-9.19,1.94-2,.68-4,1.79-6.07,1.8a9.28,9.28,0,0,1-4.18-1.19,30.76,30.76,0,0,1-8.06-6.41c-2.2-2.32-4.3-4.93-5-8.05a36.48,36.48,0,0,0-.72-3.89,24.41,24.41,0,0,0-1.72-3.38c-2.48-4.75-1.54-11.5,3.06-14.23Z" transform="translate(-28.08 -76.33)"/><path class="cls-20" d="M385.07,644.49c-1.32-1.92-2.51-8.47-3.07-12-.1-.77-.21-1.55-.35-2.31h0c-.13-.69-.28-1.37-.47-2l-.09-.26a48.48,48.48,0,0,0,7.94-2.94,26.4,26.4,0,0,1,4.27-2,70.35,70.35,0,0,0,1.89,8.19,79.47,79.47,0,0,0,3.91,11.34,89.54,89.54,0,0,0-13.86,2.42c-.09-.2-.17-.34-.17-.34Z" transform="translate(-28.08 -76.33)"/><path class="cls-21" d="M391.45,632.34a74.49,74.49,0,0,1-1.82-7.72,17.9,17.9,0,0,1,3.67-1.74,70.35,70.35,0,0,0,1.89,8.19,79.47,79.47,0,0,0,3.91,11.34c-1.37.11-2.74.27-4.1.47a83.66,83.66,0,0,1-3.55-10.54Z" transform="translate(-28.08 -76.33)"/><path class="cls-14" d="M475.51,369.52a19.62,19.62,0,0,0-2.89-10c-1.83-2.75-4.62-4.53-7.43-4.31a6.79,6.79,0,0,0-4.21,2.09c-.17-2.06-.37-4.16-.62-6.29l-5.87-31.39s-3.06-11.2-14.83-14.09c0,0-11.82-3.67-32.19-3.84H406.4c-20.38.08-32.21,3.7-32.21,3.7-11.78,2.84-14.89,14-14.89,14l-6,31.36c-.25,2.13-.47,4.23-.64,6.29a6.72,6.72,0,0,0-4.21-2.11c-2.8-.23-5.6,1.53-7.45,4.28a19.71,19.71,0,0,0-2.93,10c-.22,5.55,1.5,11.37,5,14.66a8.49,8.49,0,0,0,9.32,1.86c.16,2.5.36,4.77.56,6.79,1.94,11.9,10.48,35.89,47.51,42.17l5.68,0h6.75l.16,0c36.61-6.1,45.41-29.64,47.51-41.62.22-2.1.44-4.48.62-7.11h0a8.5,8.5,0,0,0,9.31-1.82c3.49-3.28,5.24-9.09,5-14.64Z" transform="translate(-28.08 -76.33)"/><path class="cls-20" d="M363.43,320.78l-3.33,34.59s.13,24.95,3.87,45.92c0,0,11.31,19.61,34.55,27.64a37.41,37.41,0,0,0,8.13.78,37.83,37.83,0,0,0,8.13-.74c23.27-7.93,34.67-27.49,34.67-27.49,3.83-21,4.07-45.9,4.07-45.9L450.36,321c-.35-7.85-7.46-14.36-7.52-14.42a22,22,0,0,0-3.18-1.05s-11.82-3.67-32.19-3.84H406.4c-20.38.08-32.21,3.7-32.21,3.7a21.55,21.55,0,0,0-3.18,1c-.06.06-7.21,6.54-7.58,14.39Z" transform="translate(-28.08 -76.33)"/><path class="cls-22" d="M426.3,364.8c0,3.62,1.88,6.55,4.18,6.54s4.16-2.93,4.16-6.55-1.88-6.53-4.18-6.53-4.16,2.93-4.16,6.54Z" transform="translate(-28.08 -76.33)"/><path class="cls-22" d="M387.32,364.32c0,3.62-1.86,6.55-4.16,6.55S379,368,379,364.34s1.86-6.55,4.16-6.55,4.17,2.92,4.18,6.53Z" transform="translate(-28.08 -76.33)"/><path class="cls-23" d="M465.22,381l.32,0a5.69,5.69,0,0,0,3.68-2.07A13.06,13.06,0,0,0,472,370a11.28,11.28,0,0,0-2.55-7.27c-1.88-2-4.62-2.37-6.52-.82a1.25,1.25,0,0,0-.24,1.5.78.78,0,0,0,1.22.3,3.22,3.22,0,0,1,4.38.65,8.86,8.86,0,0,1,1.95,5.72,10.61,10.61,0,0,1-2.24,7.26,4,4,0,0,1-2.6,1.5,2.48,2.48,0,0,1-2.33-1.21,4.12,4.12,0,0,1-.45-1.35,3.87,3.87,0,0,1,.67-3,1.35,1.35,0,0,1,2-.1.77.77,0,0,0,1.24,0,1.28,1.28,0,0,0,0-1.53,2.85,2.85,0,0,0-4.45,0,6.84,6.84,0,0,0-.47,7.25,4.15,4.15,0,0,0,3.55,2.13Z" transform="translate(-28.08 -76.33)"/><path class="cls-23" d="M348.3,381l-.32,0a5.69,5.69,0,0,1-3.68-2.07,13.06,13.06,0,0,1-2.81-8.93,11.39,11.39,0,0,1,2.55-7.27c1.88-2,4.63-2.37,6.52-.82a1.25,1.25,0,0,1,.25,1.5.78.78,0,0,1-1.22.3,3.23,3.23,0,0,0-4.39.65,8.92,8.92,0,0,0-1.95,5.72,10.67,10.67,0,0,0,2.24,7.26,4.07,4.07,0,0,0,2.61,1.5,2.47,2.47,0,0,0,2.32-1.21,3.7,3.7,0,0,0,.45-1.35,3.87,3.87,0,0,0-.67-3,1.34,1.34,0,0,0-2-.1.78.78,0,0,1-1.25,0,1.26,1.26,0,0,1,0-1.53,2.84,2.84,0,0,1,4.44,0,6.28,6.28,0,0,1,1.22,5.05,6.49,6.49,0,0,1-.75,2.2A4.15,4.15,0,0,1,348.3,381Z" transform="translate(-28.08 -76.33)"/><path class="cls-24" d="M480.2,301.31c-.73-2.53-1.85-4.94-2.43-7.51-2.66-12,6.77-25.28,1.14-36.18a5.41,5.41,0,0,0-2.6-2.75c-3.79-1.52-8.06,4.23-11.55,2.11-1.27-.77-1.79-2.3-2.3-3.7a46.06,46.06,0,0,0-3.92-8.24,6.49,6.49,0,0,0-2.19-2.48c-1.85-1.06-4.28-.22-5.84,1.23s-2.57,3.39-3.88,5.08a17.05,17.05,0,0,1-2.57,2.66c-7.19,5.66-30,1-30,1-8-1.67-16.81-1.55-24.27,2.21-6.46,3.26-9.12,10.83-15.65,13.87-3.89,1.69-8.29,1.57-12.48,2.2A28.59,28.59,0,0,0,348,276.56c-7.5,6-10.85,16-11.07,25.6s2.26,19,4.5,28.36a113.77,113.77,0,0,1,3.29,25.2,6.37,6.37,0,0,1,7.89,1.31c.17-2.06.39-4.16.64-6.29l6-31.36s2.54-9.13,11.71-13l.42-.16.47-.19.41-.14.57-.18.34-.11,1-.26a94,94,0,0,1,15.71-2.81c3.22-.34,6.9-.63,11-.78,1.76-.06,3.59-.1,5.5-.11h1.07c1.91,0,3.74.06,5.5.13l1.73.08c2.27.11,4.41.27,6.39.46,2.49.23,4.74.5,6.75.78l2.3.35c1.09.18,2.1.36,3,.53,1.21.23,2.27.45,3.15.65,2.21.5,3.36.86,3.36.86l1,.26.34.11.57.19.41.14.47.19c9.49,3.79,12.07,13.2,12.07,13.2L460.36,351c.25,2.13.45,4.23.62,6.29a6.79,6.79,0,0,1,4.21-2.09,7.37,7.37,0,0,1,5.15,1.79c0-9.41,3.68-18.41,6.79-27.32,3.18-9.13,5.78-19.07,3.07-28.34Z" transform="translate(-28.08 -76.33)"/><path class="cls-25" d="M480.2,301.31c-.73-2.53-1.85-4.94-2.43-7.51-2.66-12,6.77-25.28,1.14-36.18a5.41,5.41,0,0,0-2.6-2.75c1.79,25.1-24.48,59.26-24.48,59.26h0a21,21,0,0,1,2.66,5.46L460.36,351c.25,2.13.45,4.23.62,6.29a6.79,6.79,0,0,1,4.21-2.09,7.37,7.37,0,0,1,5.15,1.79c0-9.41,3.68-18.41,6.79-27.32,3.18-9.13,5.78-19.07,3.07-28.34Z" transform="translate(-28.08 -76.33)"/><path class="cls-25" d="M355.18,272.53a26.55,26.55,0,0,0-7.15,4c-7.5,6-10.85,16-11.07,25.6s2.26,19,4.5,28.36a113.77,113.77,0,0,1,3.29,25.2,6.37,6.37,0,0,1,7.89,1.31c.17-2.06.39-4.16.64-6.29l6-31.36a22.06,22.06,0,0,1,6.18-9.48c-16.69-17.44-10.3-37.37-10.3-37.37Z" transform="translate(-28.08 -76.33)"/><path class="cls-25" d="M417.28,398.59H396.34s-7,.46-5.57,7.15c0,0,2.29,14,16,14s16-14,16-14c1.46-6.69-5.57-7.15-5.57-7.15Z" transform="translate(-28.08 -76.33)"/><path class="cls-26" d="M392.83,411.41a15.87,15.87,0,0,0,28.08-.21,26.61,26.61,0,0,0-28.08.21Z" transform="translate(-28.08 -76.33)"/><path class="cls-24" d="M378.1,346.6a69,69,0,0,1,9.28-1.74,5.3,5.3,0,0,0,2.25-.74,1.85,1.85,0,0,0,.78-2.08,2.57,2.57,0,0,0-1.65-1.26,21.88,21.88,0,0,0-18,1.4,9,9,0,0,0-4.22,4.22c-.86,2.16.44,6.61,3.53,5.42,1.11-.42,2-2.05,3-2.77a16.88,16.88,0,0,1,5.07-2.45Z" transform="translate(-28.08 -76.33)"/><path class="cls-24" d="M434.2,346.6a69.14,69.14,0,0,0-9.27-1.74,5.34,5.34,0,0,1-2.26-.74,1.85,1.85,0,0,1-.78-2.08,2.57,2.57,0,0,1,1.65-1.26,21.87,21.87,0,0,1,18,1.4,9,9,0,0,1,4.22,4.22c.86,2.16-.43,6.61-3.52,5.42-1.12-.42-2-2.05-3-2.77a16.76,16.76,0,0,0-5.07-2.45Z" transform="translate(-28.08 -76.33)"/><path class="cls-4" d="M399.92,445.56v-4.27H400a16.68,16.68,0,0,0,6.92,1.79V432s-55.72-28.35-109.43-29.65v21.4l102.46,17.57v4.27Z" transform="translate(-28.08 -76.33)"/><path class="cls-4" d="M406.88,432v11.11a12.26,12.26,0,0,0,7-1.79h0v4.28h0v-4.28l102.45-17.57v-21.4C462.61,403.62,406.88,432,406.88,432Z" transform="translate(-28.08 -76.33)"/><path class="cls-5" d="M297.46,414.79c16,1.68,64.46,7.86,109.43,24.86v-1.77c-45.12-17-93.54-23.1-109.43-24.75v1.66Z" transform="translate(-28.08 -76.33)"/><path class="cls-5" d="M406.88,439.65c45-17,93.39-23.18,109.44-24.86v-1.66c-15.9,1.65-64.31,7.79-109.44,24.75v1.77Z" transform="translate(-28.08 -76.33)"/><polygon class="cls-7" points="257.74 493.04 371.83 512.6 371.83 364.96 257.74 345.4 257.74 493.04 257.74 493.04"/><polygon class="cls-7" points="499.89 493.04 385.79 512.6 385.79 364.96 499.89 345.4 499.89 493.04 499.89 493.04"/><path class="cls-27" d="M400,441.29h-.05V588.93c8.35,4.1,13.95,0,13.95,0V441.29h0c-.46.31-5.9,3.88-13.87,0Z" transform="translate(-28.08 -76.33)"/><path class="cls-28" d="M285.82,478.28v91.09l114.1,19.56V563.61c-77.57-3.5-108.08-70-114.1-85.33Z" transform="translate(-28.08 -76.33)"/><path class="cls-28" d="M528,476.81c-4.4,11.83-34.11,82.83-114.1,86.77v25.35L528,569.37V476.81Z" transform="translate(-28.08 -76.33)"/><path class="cls-20" d="M273.66,517.06a7.48,7.48,0,0,0-1.18-2.11,7.42,7.42,0,0,1-1.09-6.91c.43-1,1.2-2.07,1-3.15a6.22,6.22,0,0,0-.45-1.25,8.13,8.13,0,0,1-.26-4.1c.24-1.78.93-2.8,2.17-3.32,2.62-2.15,9.89-2,9.89-2,5.06-.4,10.13-.68,15.19-.69,2.13,0,4.52.14,5.88,1.49a3.93,3.93,0,0,1,1.06,3.05,4.64,4.64,0,0,1-1.52,3.31c-1.42,1.25-3.59,1.55-5.58,1.78l-8.88,1s0,.06,0,.08c3.75-.22,7.49-.35,11.23-.34,2.3,0,4.86.18,6.32,1.68a4.52,4.52,0,0,1,1.15,3.4,5.18,5.18,0,0,1-1.62,3.67c-1.51,1.38-3.83,1.7-6,2l-4.51.51c1.18-.07,2.36-.14,3.54-.18,2-.09,4.31,0,5.65,1.15a3.59,3.59,0,0,1,1.12,2.79,4.29,4.29,0,0,1-1.33,3.12c-1.3,1.2-3.35,1.56-5.24,1.84l-3.66.55c1.1,0,2.26.09,2.26.09a9.09,9.09,0,0,1,2.09.3,2.83,2.83,0,0,1,2,2.23,5.5,5.5,0,0,1,0,1.57,2.42,2.42,0,0,1-.76,1.85,5.7,5.7,0,0,1-2.24,1.12l-.81.21q-6,1.41-12.12,2.47c-1.56.27-5.21.48-5.21.48a4.51,4.51,0,0,1-2.9-.77,7.71,7.71,0,0,1-2.24-5.65,3.89,3.89,0,0,0-.11-1.7,4.63,4.63,0,0,0-1.05-1.31,7.85,7.85,0,0,1-1.91-5.91,7.38,7.38,0,0,0,0-2.3Z" transform="translate(-28.08 -76.33)"/><path class="cls-21" d="M272.43,504.89a6.39,6.39,0,0,0-.42-1.18,1.72,1.72,0,0,1,.28.08,10.56,10.56,0,0,0,2.67.86,23.66,23.66,0,0,0,4.61.17c1.6-.07,3.19-.26,4.78-.46.61-.09,1.22-.16,1.83-.22s1.17,0,1.75,0l1.61,0h.09c.46,0,.32.22.32.22-1.27.33-2.54.64-3.82.91l-2.38.48a11.05,11.05,0,0,1-1.15.2l-1.21.1c-1.31.09-2.61.16-3.91.22-2,.07-4.05.14-5.59,1.27a1,1,0,0,1-.36.22,5.22,5.22,0,0,0,.9-2.83Z" transform="translate(-28.08 -76.33)"/><path class="cls-21" d="M275.59,525.27a5.68,5.68,0,0,1-.5-.6c.75-.16,2.31.44,2.94.51a38.88,38.88,0,0,0,7.55-.08l7.23-.55c.49,0,1-.07,1.5-.09h0l2.07-.15c.62,0,0,.24,0,.24l-1.8.5a104.51,104.51,0,0,1-12.7,1.87,9.34,9.34,0,0,0-3.76.83,10.42,10.42,0,0,1-1.39.75v-.22a3.89,3.89,0,0,0-.11-1.7,4.63,4.63,0,0,0-1.05-1.31Z" transform="translate(-28.08 -76.33)"/><path class="cls-21" d="M273.59,516.85h0a8.73,8.73,0,0,0-1.11-1.9l-.18-.27a4.78,4.78,0,0,0,2.6,1.14h0a88.54,88.54,0,0,0,14.65-.55,31.92,31.92,0,0,1,6.17-.5c.2,0,.7,0,.84.13s.11.13.07.18,0,0,0,0a.07.07,0,0,1,.07,0s0,.05-.07.07a23.86,23.86,0,0,1-3,.77c-1,.22-2.06.41-3.11.57-2.09.32-4.2.52-6.31.63-1.61.08-3.23.07-4.85.12a10.82,10.82,0,0,0-5.1.79l-.48.26a4.34,4.34,0,0,0-.09-1.3,1.72,1.72,0,0,0-.07-.21Z" transform="translate(-28.08 -76.33)"/><path class="cls-21" d="M286.68,494c-1,.06-1.93.13-2.9.21a29.42,29.42,0,0,0-7.48.87,24.28,24.28,0,0,0-1.17-5s-1.93-5.34.17-7.49a6.05,6.05,0,0,1,2.79-1.43,5.58,5.58,0,0,1,3.18.24,7.25,7.25,0,0,1,3.39,3.35,13.89,13.89,0,0,1,1.63,4.79,29.7,29.7,0,0,1,.39,4.48Z" transform="translate(-28.08 -76.33)"/><path class="cls-20" d="M540.08,517.06a7.48,7.48,0,0,1,1.18-2.11,7.44,7.44,0,0,0,1.09-6.91c-.44-1-1.21-2.07-1-3.15a6.22,6.22,0,0,1,.45-1.25,8.13,8.13,0,0,0,.26-4.1c-.24-1.78-.93-2.8-2.18-3.32-2.61-2.15-9.89-2-9.89-2-5.05-.4-10.12-.68-15.18-.69-2.14,0-4.52.14-5.88,1.49a3.93,3.93,0,0,0-1.06,3.05,4.64,4.64,0,0,0,1.52,3.31c1.42,1.25,3.58,1.55,5.57,1.78l8.89,1s0,.06,0,.08c-3.74-.22-7.49-.35-11.23-.34-2.29,0-4.85.18-6.31,1.68a4.48,4.48,0,0,0-1.15,3.4,5.16,5.16,0,0,0,1.61,3.67c1.51,1.38,3.84,1.7,6,2l4.51.51c-1.18-.07-2.36-.14-3.54-.18-2-.09-4.32,0-5.66,1.15a3.55,3.55,0,0,0-1.11,2.79A4.28,4.28,0,0,0,508.2,522c1.31,1.2,3.36,1.56,5.25,1.84l3.65.55c-1.09,0-2.26.09-2.26.09a9.25,9.25,0,0,0-2.09.3,2.83,2.83,0,0,0-2,2.23,5.16,5.16,0,0,0-.05,1.57,2.45,2.45,0,0,0,.75,1.85,5.77,5.77,0,0,0,2.24,1.12l.82.21q6,1.41,12.12,2.47c1.55.27,5.2.48,5.2.48a4.51,4.51,0,0,0,2.9-.77,7.67,7.67,0,0,0,2.24-5.65,4.22,4.22,0,0,1,.11-1.7,5,5,0,0,1,1-1.31,7.9,7.9,0,0,0,1.92-5.91,7.09,7.09,0,0,1,0-2.3Z" transform="translate(-28.08 -76.33)"/><path class="cls-21" d="M541.31,504.89a5.2,5.2,0,0,1,.42-1.18,1.72,1.72,0,0,0-.28.08,10.56,10.56,0,0,1-2.67.86,23.73,23.73,0,0,1-4.62.17c-1.59-.07-3.18-.26-4.77-.46-.61-.09-1.22-.16-1.83-.22s-1.17,0-1.76,0l-1.6,0h-.09c-.47,0-.32.22-.32.22,1.27.33,2.54.64,3.82.91l2.38.48a11.34,11.34,0,0,0,1.14.2l1.22.1c1.3.09,2.61.16,3.91.22,2,.07,4,.14,5.58,1.27a1.17,1.17,0,0,0,.37.22,5.22,5.22,0,0,1-.9-2.83Z" transform="translate(-28.08 -76.33)"/><path class="cls-21" d="M538.14,525.27a5.78,5.78,0,0,0,.51-.6c-.76-.16-2.31.44-2.94.51a38.88,38.88,0,0,1-7.55-.08l-7.23-.55-1.5-.09h0l-2.06-.15c-.62,0,0,.24,0,.24l1.81.5a104.34,104.34,0,0,0,12.69,1.87,9.35,9.35,0,0,1,3.77.83,9.84,9.84,0,0,0,1.39.75,1.62,1.62,0,0,0,0-.22,4.22,4.22,0,0,1,.11-1.7,5,5,0,0,1,1-1.31Z" transform="translate(-28.08 -76.33)"/><path class="cls-21" d="M540.14,516.85h0a8.73,8.73,0,0,1,1.11-1.9l.18-.27a4.8,4.8,0,0,1-2.6,1.14h0a88.5,88.5,0,0,1-14.65-.55,32,32,0,0,0-6.17-.5c-.2,0-.7,0-.84.13s-.11.13-.08.18l0,0s-.06,0-.06,0,0,.05.07.07a23.71,23.71,0,0,0,3,.77c1,.22,2.07.41,3.11.57,2.09.32,4.2.52,6.31.63,1.62.08,3.24.07,4.86.12a10.78,10.78,0,0,1,5.09.79l.49.26a4,4,0,0,1,.09-1.3l.06-.21Z" transform="translate(-28.08 -76.33)"/><path class="cls-21" d="M527.06,494c1,.06,1.93.13,2.89.21a29.52,29.52,0,0,1,7.49.87,24.28,24.28,0,0,1,1.17-5s1.93-5.34-.18-7.49a6.07,6.07,0,0,0-2.78-1.43,5.58,5.58,0,0,0-3.18.24,7.2,7.2,0,0,0-3.39,3.35,14.12,14.12,0,0,0-1.64,4.79,29,29,0,0,0-.38,4.48Z" transform="translate(-28.08 -76.33)"/></g></g></svg>